<svg xmlns="http://www.w3.org/2000/svg" viewBox="0 0 1200 900" width="1200" height="900" role="img" aria-label="ローストチキン">
  <rect width="1200" height="900" fill="#1f1b17"/>
  <ellipse cx="600" cy="470" rx="380" ry="300" fill="#3b332b"/>
  <ellipse cx="600" cy="470" rx="344" ry="268" fill="#4a4038"/>
  <g>
    <ellipse cx="600" cy="452" rx="196" ry="164" fill="#c98333"/>
    <ellipse cx="600" cy="430" rx="176" ry="142" fill="#dc9a44"/>
    <ellipse cx="572" cy="396" rx="96" ry="76" fill="#ecb25c" opacity="0.7"/>
    <path d="M600 300 q-40 -60 -14 -96 q26 34 14 96z" fill="#b06f28"/>
    <path d="M760 520 q70 30 96 84 q-70 -6 -96 -84z" fill="#c98333"/>
    <path d="M440 520 q-70 30 -96 84 q70 -6 96 -84z" fill="#c98333"/>
    <g fill="#a9651f" opacity="0.6">
      <ellipse cx="530" cy="470" rx="26" ry="18"/>
      <ellipse cx="640" cy="500" rx="30" ry="20"/>
      <ellipse cx="672" cy="412" rx="22" ry="15"/>
    </g>
  </g>
  <g fill="#e4c98a">
    <circle cx="336" cy="386" r="52"/><circle cx="852" cy="376" r="46"/>
    <circle cx="880" cy="546" r="40"/><circle cx="310" cy="556" r="44"/>
  </g>
  <g stroke="#5c7d42" stroke-width="7" stroke-linecap="round" fill="none">
    <path d="M760 340 q40 -50 90 -56"/>
    <path d="M770 356 q30 -34 74 -42"/>
    <path d="M400 600 q-40 30 -86 30"/>
  </g>
</svg>
